<?xml version="1.0" encoding="UTF-8"?>
<svg xmlns="http://www.w3.org/2000/svg" xml:space="preserve" width="900px" height="900px"
    version="1.1"
    style="shape-rendering:geometricPrecision; text-rendering:geometricPrecision; image-rendering:optimizeQuality; fill-rule:evenodd; clip-rule:evenodd"
    viewBox="0 0 900 900"
    xmlns:xlink="http://www.w3.org/1999/xlink">
 <defs>
  <style type="text/css">
   <![CDATA[
    .fil8 {fill:#0B0B0B}
    .fil1 {fill:#2676BA}
    .fil0 {fill:#373C4F}
    .fil4 {fill:#4C4C4C}
    .fil7 {fill:#927255}
    .fil6 {fill:#F15B24}
    .fil3 {fill:#F37C28}
    .fil5 {fill:#F6911D}
    .fil2 {fill:#FDB713}
   ]]>
  </style>
 </defs>
 <g id="Layer_x0020_1">
  <metadata id="CorelCorpID_0Corel-Layer"/>
  <g id="_105553377687264">
   <path class="fil0" d="M394.28 366.75c0,13.13 2.23,20.85 2.53,32.45l1.92 21.6c0.17,3.34 0.91,7.2 1.33,10.76 0.85,7.25 1.06,14.65 2.14,22.02l3.56 44.13c0.25,3.12 0.89,6.73 1.29,10.15l2.93 33.31c0.52,3.7 0.67,6.53 1.21,10.24 0.52,3.62 0.37,8.1 0.78,11.3 0.9,7.09 1.4,14.19 2.04,21.49 0.62,7.08 1.12,14.55 2.01,21.52l2.16 21.99c0.5,3.5 0.29,7.79 0.7,10.75l3.38 32.87c0.22,4.52 0.22,6.53 0.75,10.69 0.41,3.21 0.26,7.68 0.78,11.3l2.28 21.88 45.77 0c2.06,-8.84 6.21,-68.89 8.15,-84.68 0.54,-4.37 0.36,-7.99 0.84,-12.51 0.38,-3.52 0.99,-7.83 1.56,-11.8 1.07,-7.47 1.92,-26.55 3.27,-36.79l14.7 -158.25c1.48,-13.82 1.57,-28.77 3.88,-42.53 0.49,-2.89 0.71,-2.43 2.84,-4.16 1.35,-1.08 2.22,-1.92 3.45,-2.9 2.58,-2.05 17.24,-13.38 17.89,-15.81l-158.29 0c0.66,2.47 0.38,1.4 2.25,2.84 1.48,1.14 1.74,1.49 2.98,2.73l15.54 13.07c1.77,1.52 1.08,1.73 3.38,2.34z"/>
   <path class="fil1" d="M674 466.58l0 268.97c-5.75,3.04 -11.49,5.78 -17.17,8.9l-8.35 4.36c-2.97,1.64 -5.82,3.05 -8.81,4.54l-51.7 27.14c-3.16,1.58 -5.31,2.7 -8.33,4.38l-41.1 21.21c-1.98,1.19 -1.14,-0.03 -1.86,1.96l16.94 -4.68c2.23,-0.61 4.35,-1.07 6.08,-1.55l17.43 -4.82c2.2,-0.72 4.13,-1.02 6.04,-1.59 3.95,-1.17 7.35,-1.88 11.59,-3.03l122.12 -33.64c2.31,-0.54 4.79,-0.35 4.79,-2.83l0 -304.58c-3.45,0 -3.4,0.64 -6.12,1.5l-35.56 11.49c-2.02,0.6 -4.4,1.51 -5.99,2.27z"/>
   <path class="fil1" d="M176.87 757.8c3.2,0.27 23.92,6.51 28.67,7.58l28.91 7.96c2.03,0.57 3.5,0.83 5.58,1.4l40.86 11.28c2.16,0.7 3.3,0.83 5.55,1.44l45.9 12.59c2.46,0.61 3.35,1.1 5.95,1.68 2.08,0.48 3.16,0.79 5.62,1.38 2.36,0.55 3.08,1.19 5.88,1.75 2.79,0.55 3.51,1.19 5.87,1.75 2.39,0.56 4.17,1.26 6.2,1.43 -1.49,-2.24 -1.16,-1.51 -3.67,-2.69 -1.37,-0.64 -2.47,-1.2 -4.26,-2.09l-47.57 -24.92c-1.05,-0.57 -1.08,-0.65 -2.04,-1.13l-45.96 -23.97c-5.5,-2.94 -11.62,-5.54 -17.16,-8.91 -3,-1.83 -5.79,-2.71 -8.83,-4.52l-4.51 -2.49c-2.83,-1.41 -1.95,-1.55 -4.58,-1.77l0 -269.6c-6.46,-1.51 -42.3,-14.54 -46.41,-14.63l0 306.48z"/>
   <path class="fil2" d="M513.8 788.32l3.99 -2.36c11.23,-7.49 25.54,-15.65 37.21,-23.19 15.87,-10.27 34.49,-21 49.7,-31.04 8.71,-5.74 20.43,-12.31 28.52,-17.89 2.07,-1.43 12.17,-6.29 12.17,-8.81l0 -314.11c0,-3.64 -2.51,-0.4 -3.8,0.62l-41.11 33.3c-3.39,2.53 -2.13,5.9 -2.13,14.4l-0.05 258.11c-0.47,2.65 -12.83,14.02 -15.66,17.4l-12.16 13.28c-4.57,5.02 -12.78,12.27 -16.27,16.79l-18.12 19.38c-0.67,0.73 -0.18,0.19 -0.96,0.95l-7.28 7.35c-2.6,2.82 -13.42,13.47 -14.05,15.82z"/>
   <path class="fil2" d="M384.11 788.32c-0.23,-2.76 -4.04,-5.49 -7.46,-9.06 -1.48,-1.55 -2.61,-2.62 -4.14,-4.13l-29.03 -30.73c-0.09,-0.09 -0.22,-0.23 -0.31,-0.32l-31.05 -32.53c-1.43,-1.44 -2.82,-2.64 -4.1,-4.17 -10.37,-12.4 -7.82,-2.69 -7.82,-33.51 0,-79.69 -0.64,-160.96 0.01,-240.36 0.06,-7.75 0.43,-5.84 -5.53,-11l-8.75 -7.15c-0.1,-0.08 -0.25,-0.2 -0.35,-0.29l-22.79 -18.52c-1.55,-1.16 -3.27,-2.29 -4.7,-3.57 -2.35,-2.11 -1.93,-2.38 -4.93,-3.97l0 298.21c0,5.26 -0.31,11.46 -0.05,16.59 0.21,4.07 4.18,5.42 10.8,9.54l7.86 4.85c1.71,1.21 3.29,2.11 5.03,3.24 1.97,1.27 3.17,1.7 5.14,3.12 1.87,1.34 3.18,1.79 5.17,3.1l58.26 36.46c1.06,0.65 1.69,0.82 2.86,1.59l4.99 3.28c3.5,2.29 6.61,4.16 10.18,6.35l20.71 12.98z"/>
   <path class="fil3" d="M749.01 802.95l-69.54 10.56c-9.6,2.16 -19.66,2.91 -29.29,4.41 -2.63,0.41 -3.47,0.7 -5.79,1.2 -2.25,0.47 -3.58,0.2 -5.84,0.52 -7.08,1.01 -14.69,2.81 -23.57,3.76 -1.74,0.18 -4.13,0.76 -5.87,1.12l-28.85 4.21c-2.39,0.43 -3.39,0.78 -5.78,1.21 -3.29,0.6 -6.02,0.02 -10.42,1.66 -0.14,0.05 -0.33,0.14 -0.45,0.19l231.81 1.04 0 -284.22 -46.41 0 0 254.34z"/>
   <path class="fil3" d="M242.99 832.33l90.54 -1.04c-1.29,-0.34 -1.35,-0.25 -2.71,-0.47l-64.06 -9.68c-1.97,-0.31 -3.43,-0.71 -5.27,-1.09 -2.19,-0.45 -3.6,-0.39 -6.26,-0.73l-40.47 -6.58c-2.34,-0.43 -4.04,-0.12 -6.37,-0.62l-12.08 -1.91c-9.84,-2.07 -25.9,-3.58 -34.65,-5.4 -2.71,-0.56 -9.32,-1.93 -12.12,-1.5 -1.79,-2.75 -0.85,-28.37 -0.85,-31.52 0,-73.85 -0.59,-149.1 0.01,-222.61l-45.55 0 0 283.13 139.84 0.02z"/>
   <path class="fil2" d="M364.4 158.83c0,3.61 -0.77,3.38 7.83,1.3l3.9 -1.7c2.69,1.18 1.72,1.03 6.47,-0.05 5.37,-1.22 2.18,0 5.63,-1.87 0.64,-0.34 0.77,-0.47 1.86,-0.77l9.92 -2.22c2.78,0.17 1.92,0.55 2.05,0.59 1.43,0.47 -1.06,0.44 1.65,0.43 2.42,-0.02 2.82,-1.24 2.83,-1.24 1.56,-1.44 0.1,-1.59 9.36,-3.57 4.29,-0.91 16.89,-4.54 20.69,-4.54 1.18,-2.01 0.2,-2.09 2.6,-3.26l0.91 -0.36c2.14,-0.75 4.4,-0.62 5.68,1.48 6.8,-5.35 13.87,-13.32 19.55,-19.35 6.86,-7.28 16.2,-23.75 18.97,-33.17 3.4,-11.58 4.21,-22.17 0.99,-33.53 -4.2,-14.82 -15.96,-27.88 -27.97,-36.89 -1.77,-1.32 -6.42,-4.82 -8.36,-4.98 5.57,8.33 6.1,12.61 3.44,23.15l-3.62 9.73c-0.07,0.13 -0.14,0.3 -0.2,0.44 -0.07,0.13 -0.15,0.29 -0.22,0.42l-5.67 9.59c-1.04,1.49 -1.78,2.42 -2.88,4.1l-10.32 12.57c-0.13,0.14 -0.46,0.55 -0.58,0.69 -0.09,0.11 -0.85,0.98 -0.89,1.03l-17.04 16.65c-1.71,1.63 -2.23,2.04 -4.16,3.47l-22.52 22.62c-6.81,9.2 -6.76,8.35 -12.07,17.81 -1.98,3.54 -3.18,5.97 -4.74,9.89l-2.98 8.51c-0.66,2.69 -1.26,-0.42 -0.11,3.03z"/>
   <path class="fil2" d="M445.77 178.54c0.03,2.93 4.58,2.49 9.09,4.81l8.04 1.72c3.63,0.9 0.51,1.47 6.15,2.33 7,1.07 -0.54,0.84 5.97,0.43l0.45 1.12c0.13,0.37 -0.09,0.38 0.49,1.35 2.36,0.05 5.3,0.59 6.97,1.31 -1.4,1.4 1.04,0.95 -2.75,1.12 -2.41,0.12 0.51,-0.41 -2.9,-0.52 2.49,0.01 4.76,2.09 7.08,2.16 8.96,0.29 22.61,4.94 22.62,4.94 0.27,0.02 0.04,-0.01 1.29,-0.23 1.4,-0.24 0.98,-0.15 2.35,-0.19 1.12,-0.03 0.61,0.43 2.47,-1.95 9.69,-12.39 17.33,-22.53 21.44,-39 2.02,-8.13 1.76,-11.67 1.54,-20.76 -0.23,-9.66 -7.42,-23.06 -13.56,-30.31 -1.72,-2.04 -3.5,-3.43 -5.34,-5.46l-3.77 -3.86c-2.9,-2.65 -11.52,-9.68 -14.86,-10.57 0.52,1.93 5.03,6.51 4.38,14.51 -0.82,10.15 -4.86,19.57 -10.55,27.64l-26.25 30.33 -19.83 17.65c-0.85,1.32 -0.48,0.15 -0.52,1.43z"/>
   <path class="fil4" d="M433.06 753.02c0,8.44 -10,37.33 -15.87,48.04 -0.73,1.33 -0.89,1.46 -1.29,3.16l25.97 56.05c0.59,1.56 5.86,16.45 5.42,18.06l-1.51 2.6c3.88,-3.07 2.5,-6.14 2.5,-15.67l-0.01 -54.04c-2.07,-2.06 -4.55,-2.04 -4.81,-5.84 -0.51,-7.4 10.73,-8.46 11.27,-1.12 0.14,1.86 -0.36,3.4 -1.28,4.45 -0.37,0.43 -0.95,0.81 -1.42,1.14 -0.16,0.11 -0.66,0.41 -0.82,0.51l-1.25 0.86c0.05,12.57 0.56,56.87 -0.37,66.12 1.59,-0.66 1.2,0.5 2.42,-4.58 0.63,-2.6 0.95,-2.37 1.74,-4.61 4.83,-13.79 10.58,-29.75 17.31,-42.45 0.88,-1.67 1.57,-2.83 2.41,-4.58 2.48,-5.13 6.33,-13.28 9.18,-17.53 -0.67,-1.01 -0.93,-1.09 -1.58,-2.25 -7.55,-13.59 -11.28,-27.27 -14.6,-41.98 -0.68,-3.02 -1.56,-4.11 -1.62,-7.7l-24.8 0.26c-0.94,-0.01 -3.02,-0.12 -3.82,-0.05l-3.17 1.15z"/>
   <path class="fil5" d="M364.4 158.83c-1.64,1.3 -0.72,0.14 -1.34,2.49 -0.01,0.03 -0.38,2.7 -0.39,2.78 -2.06,13.89 -0.44,24.93 5.28,37.61l6.91 11.52c4.06,5.17 9.9,12.99 15.61,16.81 -1.47,-6.3 -3.64,-6.57 0.47,-17.97 0.84,-2.33 0.5,-1.32 1.37,-3.07 3.76,-7.48 9.39,-17.35 14.64,-23.52 0.08,-0.1 0.21,-0.24 0.29,-0.34 0.51,-0.6 0.71,-0.86 1.13,-1.41 5.29,-6.94 9.18,-10.89 14.68,-17.12 1.78,-2.02 2.42,-3.07 4.45,-5.08 3.24,-3.21 5.99,-5.99 9.22,-9.22 2.77,-2.77 6.9,-6.42 9.06,-9.26 -1.28,-2.1 -3.54,-2.23 -5.68,-1.48l-0.91 0.36c-2.4,1.17 -1.42,1.25 -2.6,3.26 -3.8,0 -16.4,3.63 -20.69,4.54 -9.26,1.98 -7.8,2.13 -9.36,3.57 -0.01,0 -0.41,1.22 -2.83,1.24 -2.71,0.01 -0.22,0.04 -1.65,-0.43 -0.13,-0.04 0.73,-0.42 -2.05,-0.59l-9.92 2.22c-1.09,0.3 -1.22,0.43 -1.86,0.77 -3.45,1.87 -0.26,0.65 -5.63,1.87 -4.75,1.08 -3.78,1.23 -6.47,0.05l-3.9 1.7c-8.6,2.08 -7.83,2.31 -7.83,-1.3z"/>
   <path class="fil3" d="M413.35 231.95l-0.83 1.91c2.44,-0.06 5.02,-0.09 7.23,0l9.03 2.41c6.87,2.44 7.29,1.51 8.06,3.31 -3.21,0.08 -1.72,-0.56 -3.11,1.24l2.36 1.44c0.11,0.07 0.26,0.18 0.38,0.25 0.89,0.5 2.73,1.14 3.62,1.45 2.15,0.77 4.83,1.58 7.26,2.27 3.01,0.85 4.66,1.73 7.3,2.28 3.25,0.67 3.5,-0.25 5.07,1.16 0.09,0.08 0.21,0.24 0.3,0.32l1.01 1.05c6.09,-9.24 16.86,-18.1 24.33,-26.5 1.65,-1.85 0.79,-0.42 1.74,-2.76l-1.91 0.01c-0.27,-0.45 -0.29,-0.8 -0.45,-1.42 -0.94,-3.67 1.3,2.48 -0.23,-1.1l-11.05 -2.95c-3.33,-1.24 -3.69,-0.44 -6.09,-0.25 -0.28,-2.61 0.2,-1.62 -2.01,-2.41 -2.64,-0.95 -7.81,-2.47 -10.05,-1.4l-0.79 -1.28c-0.5,-0.41 -0.65,-0.48 -1.52,-0.79 -1.88,-0.67 -2.13,-0.39 -3.96,-1.19 -7.75,-3.38 -9.12,-2.26 -11.55,-3.68 -3.74,-2.18 -2.82,-0.57 -6.63,-1.73 -4.29,-1.29 -1.85,-1.46 -4.91,0.33l0.75 -2.49c-1.48,0.93 -0.71,0.26 -1.74,1.4 -1.25,1.37 -0.07,-0.09 -1.05,1.57l-5.75 10.74c-1.5,3.6 -6.15,12.8 -4.81,16.81z"/>
   <path class="fil5" d="M426.7 201.43l-0.75 2.49c3.06,-1.79 0.62,-1.62 4.91,-0.33 3.81,1.16 2.89,-0.45 6.63,1.73 2.43,1.42 3.8,0.3 11.55,3.68 1.83,0.8 2.08,0.52 3.96,1.19 0.87,0.31 1.02,0.38 1.52,0.79l0.79 1.28c2.24,-1.07 7.41,0.45 10.05,1.4 2.21,0.79 1.73,-0.2 2.01,2.41 2.4,-0.19 2.76,-0.99 6.09,0.25l11.05 2.95c1.53,3.58 -0.71,-2.57 0.23,1.1 0.16,0.62 0.18,0.97 0.45,1.42l1.91 -0.01c1.27,-0.03 0.12,0.36 1.42,-0.51l19.08 -18.39c2.3,-2.22 2.13,-1.8 3.02,-3.99 -1.37,0.04 -0.95,-0.05 -2.35,0.19 -1.25,0.22 -1.02,0.25 -1.29,0.23 -0.01,0 -13.66,-4.65 -22.62,-4.94 -2.32,-0.07 -4.59,-2.15 -7.08,-2.16 3.41,0.11 0.49,0.64 2.9,0.52 3.79,-0.17 1.35,0.28 2.75,-1.12 -1.67,-0.72 -4.61,-1.26 -6.97,-1.31 -0.58,-0.97 -0.36,-0.98 -0.49,-1.35l-0.45 -1.12c-6.51,0.41 1.03,0.64 -5.97,-0.43 -5.64,-0.86 -2.52,-1.43 -6.15,-2.33l-8.04 -1.72c-4.51,-2.32 -9.06,-1.88 -9.09,-4.81 -3.85,1.57 -8.19,7.78 -10.71,10.9 -1.65,2.06 -3.02,3.16 -4.63,5.54 -0.88,1.28 -0.98,1.78 -2.03,3.08 -0.63,0.77 -0.78,0.7 -1.18,1.37 -1.52,2.52 -0.62,0.33 -0.52,2z"/>
   <path class="fil6" d="M461.03 251.04l-1.01 -1.05c-0.09,-0.08 -0.21,-0.24 -0.3,-0.32 -1.57,-1.41 -1.82,-0.49 -5.07,-1.16 -2.64,-0.55 -4.29,-1.43 -7.3,-2.28 -2.43,-0.69 -5.11,-1.5 -7.26,-2.27 -0.89,-0.31 -2.73,-0.95 -3.62,-1.45 -0.12,-0.07 -0.27,-0.18 -0.38,-0.25l-2.36 -1.44c1.39,-1.8 -0.1,-1.16 3.11,-1.24 -0.77,-1.8 -1.19,-0.87 -8.06,-3.31l-9.03 -2.41c-2.21,-0.09 -4.79,-0.06 -7.23,0l0.83 -1.91c-3.01,2.38 -1.41,5.55 -2.17,10.54 -1.81,11.81 3.69,29.19 10.53,38.97 0.95,1.36 1.51,2.61 2.44,3.92 2.94,4.09 11.71,14.13 15.27,16.52 -0.24,-2.96 -0.35,-1.01 -0.97,-3.48 -3.34,-13.21 10.61,-31.77 18.31,-42.13 1.5,-2 3.11,-3.54 4.27,-5.25z"/>
   <path class="fil0" d="M433.06 753.02l3.17 -1.15c0.8,-0.07 2.88,0.04 3.82,0.05l24.8 -0.26c4.67,1.2 7.16,-0.81 7.58,-4.71 0.21,-1.96 0.31,-10.86 0.11,-12.74 -0.31,-2.94 -0.73,-2.53 -3.8,-2.55l-38.91 0.02c-3.54,-0.04 -4.13,-0.6 -4.46,2.53 -0.42,3.97 -1.08,14.03 2.46,16.74 2.12,1.63 3.6,0.53 5.23,2.07z"/>
   <path class="fil7" d="M242.99 832.33l-139.84 -0.02 0 -283.13 45.55 0c-0.6,73.51 -0.01,148.76 -0.01,222.61 0,3.15 -0.94,28.77 0.85,31.52l0 -254.7 -47.04 0 0 284.22 136.71 0.04c2.17,-0.01 2.3,0.2 3.78,-0.54z"/>
   <path class="fil8" d="M445.78 880.93c0,2.37 -0.14,2.37 1.45,3.85 0.09,0.09 0.27,0.21 0.35,0.29 0.09,0.07 0.3,0.21 0.37,0.27 0.07,0.06 0.25,0.17 0.37,0.27 1.97,-0.46 1.84,-0.81 3.81,-1.27 0,-6.6 0.62,-3.44 -2.54,-7 0.93,-9.25 0.42,-53.55 0.37,-66.12l1.25 -0.86c0.16,-0.1 0.66,-0.4 0.82,-0.51 0.47,-0.33 1.05,-0.71 1.42,-1.14 0.92,-1.05 1.42,-2.59 1.28,-4.45 -0.54,-7.34 -11.78,-6.28 -11.27,1.12 0.26,3.8 2.74,3.78 4.81,5.84l0.01 54.04c0,9.53 1.38,12.6 -2.5,15.67z"/>
  </g>
 </g>
</svg>